<?xml version="1.0" encoding="UTF-8"?>
<svg xmlns="http://www.w3.org/2000/svg" viewBox="0 0 512 512">
  <rect width="512" height="512" fill="#483D8B"/>
  <path d="M256 80c-97.2 0-176 78.8-176 176s78.8 176 176 176 176-78.8 176-176S353.2 80 256 80zm0 32c79.4 0 144 64.6 144 144s-64.6 144-144 144-144-64.6-144-144 64.6-144 144-144z" fill="#ffffff"/>
  <path d="M256 150c-8.8 0-16 7.2-16 16v90h-90c-8.8 0-16 7.2-16 16s7.2 16 16 16h106c8.8 0 16-7.2 16-16V166c0-8.8-7.2-16-16-16z" fill="#ffffff"/>
  <path d="M150 256c0-58.5 47.5-106 106-106s106 47.5 106 106-47.5 106-106 106-106-47.5-106-106zm106-138c-76.1 0-138 61.9-138 138s61.9 138 138 138 138-61.9 138-138-61.9-138-138-138z" fill="#ffffff"/>
</svg>