<?xml version="1.0" encoding="UTF-8"?>
<svg xmlns="http://www.w3.org/2000/svg" viewBox="0 0 32 32" width="32" height="32">
  <rect width="32" height="32" fill="#483D8B"/>
  <path d="M16 5c-6.075 0-11 4.925-11 11s4.925 11 11 11 11-4.925 11-11-4.925-11-11-11zm0 2c4.962 0 9 4.038 9 9s-4.038 9-9 9-9-4.038-9-9 4.038-9 9-9z" fill="#ffffff"/>
  <path d="M16 9.375c-0.55 0-1 0.45-1 1v5.625h-5.625c-0.55 0-1 0.45-1 1s0.45 1 1 1h6.625c0.55 0 1-0.45 1-1v-6.625c0-0.55-0.45-1-1-1z" fill="#ffffff"/>
  <path d="M9.375 16c0-3.656 2.969-6.625 6.625-6.625s6.625 2.969 6.625 6.625-2.969 6.625-6.625 6.625-6.625-2.969-6.625-6.625zm6.625-8.625c-4.756 0-8.625 3.869-8.625 8.625s3.869 8.625 8.625 8.625 8.625-3.869 8.625-8.625-3.869-8.625-8.625-8.625z" fill="#ffffff"/>
</svg>