<?xml version="1.0" encoding="UTF-8"?>
<svg xmlns="http://www.w3.org/2000/svg" viewBox="0 0 16 16" width="16" height="16">
  <rect width="16" height="16" fill="#483D8B"/>
  <path d="M8 2.5c-3.038 0-5.5 2.462-5.5 5.5s2.462 5.5 5.5 5.5 5.5-2.462 5.5-5.5-2.462-5.5-5.5-5.5zm0 1c2.481 0 4.5 2.019 4.5 4.5s-2.019 4.5-4.5 4.5-4.5-2.019-4.5-4.5 2.019-4.5 4.5-4.5z" fill="#ffffff"/>
  <path d="M8 4.688c-0.275 0-0.5 0.225-0.5 0.5v2.812h-2.812c-0.275 0-0.5 0.225-0.5 0.5s0.225 0.5 0.5 0.5h3.312c0.275 0 0.5-0.225 0.5-0.5v-3.312c0-0.275-0.225-0.5-0.5-0.5z" fill="#ffffff"/>
  <path d="M4.688 8c0-1.828 1.484-3.312 3.312-3.312s3.312 1.484 3.312 3.312-1.484 3.312-3.312 3.312-3.312-1.484-3.312-3.312zm3.312-4.312c-2.378 0-4.312 1.934-4.312 4.312s1.934 4.312 4.312 4.312 4.312-1.934 4.312-4.312-1.934-4.312-4.312-4.312z" fill="#ffffff"/>
</svg>